<svg width="32" height="31" viewBox="0 0 32 31" fill="none" xmlns="http://www.w3.org/2000/svg">
<g filter="url(#filter0_dd_2122_18)">
<path d="M31.0768 12.6006L17.1219 0.89379C16.8078 0.629671 16.4105 0.484863 16 0.484863C15.5896 0.484863 15.1923 0.629671 14.8782 0.89379L0.923046 12.6006C0.398136 13.0439 0.0698826 13.6768 0.00993055 14.3612C-0.0500215 15.0456 0.163196 15.726 0.603046 16.2537L0.753734 16.4333C1.19615 16.9595 1.8292 17.2886 2.51402 17.3486C3.19884 17.4087 3.8795 17.1946 4.40667 16.7534L5.16717 16.1154V27.7066C5.16772 28.1862 5.35849 28.6461 5.69764 28.9852C6.03678 29.3243 6.49661 29.5151 6.97623 29.5157H12.4252C12.6241 29.5157 12.8149 29.4366 12.9556 29.296C13.0962 29.1553 13.1752 28.9646 13.1752 28.7657V20.5209H19.3321V28.7657C19.3321 28.9646 19.4111 29.1553 19.5518 29.296C19.6924 29.4366 19.8832 29.5157 20.0821 29.5157H25.5312C26.0108 29.5151 26.4706 29.3243 26.8097 28.9852C27.1489 28.646 27.3396 28.1862 27.3402 27.7066V16.5412L27.5932 16.7534C28.1203 17.1946 28.801 17.4087 29.4858 17.3487C30.1706 17.2887 30.8037 16.9595 31.2461 16.4334L31.3969 16.2537C31.8367 15.7259 32.0499 15.0456 31.9899 14.3612C31.93 13.6768 31.6017 13.0439 31.0768 12.6006ZM25.8402 27.7069C25.8401 27.7888 25.8075 27.8673 25.7496 27.9253C25.6917 27.9832 25.6131 28.0158 25.5312 28.0159H20.8321V20.163C20.8317 19.8602 20.7112 19.5699 20.4971 19.3558C20.283 19.1417 19.9927 19.0212 19.6899 19.0209H12.8175C12.5147 19.0212 12.2244 19.1417 12.0103 19.3558C11.7961 19.5699 11.6756 19.8602 11.6752 20.163V28.0157H6.97623C6.8943 28.0156 6.81574 27.983 6.7578 27.925C6.69986 27.8671 6.66727 27.7885 6.66717 27.7066V14.857L15.9999 7.02785L25.8402 15.2828V27.7069ZM30.2477 15.2898L30.097 15.4695C29.9085 15.6882 29.6421 15.8247 29.3545 15.8499C29.0669 15.8751 28.7809 15.787 28.5572 15.6044L16.6587 5.62316C16.4742 5.46809 16.2409 5.38307 15.9999 5.38307C15.7589 5.38307 15.5256 5.46809 15.341 5.62316L3.44261 15.6042C3.21899 15.7868 2.9329 15.8749 2.64529 15.8497C2.35768 15.8244 2.09128 15.6879 1.90286 15.4692L1.75217 15.2896C1.56815 15.0666 1.47919 14.7802 1.5045 14.4921C1.5298 14.2041 1.66734 13.9376 1.88742 13.75L15.842 2.04316C15.8859 2.0054 15.942 1.98464 15.9999 1.98464C16.0579 1.98464 16.1139 2.0054 16.1579 2.04316L30.1127 13.75C30.3328 13.9376 30.4704 14.2042 30.4956 14.4923C30.5209 14.7804 30.4318 15.0668 30.2477 15.2898Z" fill="white"/>
</g>
<defs>
<filter id="filter0_dd_2122_18" x="-4" y="0.484863" width="40" height="37.0308" filterUnits="userSpaceOnUse" color-interpolation-filters="sRGB">
<feFlood flood-opacity="0" result="BackgroundImageFix"/>
<feColorMatrix in="SourceAlpha" type="matrix" values="0 0 0 0 0 0 0 0 0 0 0 0 0 0 0 0 0 0 127 0" result="hardAlpha"/>
<feOffset dy="4"/>
<feGaussianBlur stdDeviation="2"/>
<feComposite in2="hardAlpha" operator="out"/>
<feColorMatrix type="matrix" values="0 0 0 0 0 0 0 0 0 0 0 0 0 0 0 0 0 0 0.25 0"/>
<feBlend mode="normal" in2="BackgroundImageFix" result="effect1_dropShadow_2122_18"/>
<feColorMatrix in="SourceAlpha" type="matrix" values="0 0 0 0 0 0 0 0 0 0 0 0 0 0 0 0 0 0 127 0" result="hardAlpha"/>
<feOffset dy="4"/>
<feGaussianBlur stdDeviation="2"/>
<feComposite in2="hardAlpha" operator="out"/>
<feColorMatrix type="matrix" values="0 0 0 0 0 0 0 0 0 0 0 0 0 0 0 0 0 0 0.25 0"/>
<feBlend mode="normal" in2="effect1_dropShadow_2122_18" result="effect2_dropShadow_2122_18"/>
<feBlend mode="normal" in="SourceGraphic" in2="effect2_dropShadow_2122_18" result="shape"/>
</filter>
</defs>
</svg>
