<svg width="32" height="32" viewBox="0 0 32 32" fill="none" xmlns="http://www.w3.org/2000/svg">
<path d="M31.1394 13.9185C31.1387 13.9177 31.138 13.917 31.1372 13.9163L18.0824 0.863281C17.526 0.306641 16.7862 0 15.9992 0C15.2123 0 14.4725 0.306396 13.9158 0.863037L0.867797 13.9094C0.863402 13.9138 0.859007 13.9185 0.854612 13.9229C-0.288082 15.072 -0.286129 16.9365 0.860228 18.0828C1.38396 18.6067 2.07568 18.9102 2.81526 18.9419C2.84529 18.9448 2.87557 18.9463 2.90609 18.9463H3.42641V28.5525C3.42641 30.4534 4.9732 32 6.87476 32H11.9822C12.4998 32 12.9198 31.5803 12.9198 31.0625V23.5312C12.9198 22.6638 13.6254 21.9583 14.493 21.9583H17.5055C18.373 21.9583 19.0786 22.6638 19.0786 23.5312V31.0625C19.0786 31.5803 19.4984 32 20.0162 32H25.1237C27.0253 32 28.572 30.4534 28.572 28.5525V18.9463H29.0545C29.8412 18.9463 30.581 18.6399 31.138 18.0833C32.2856 16.9351 32.286 15.0674 31.1394 13.9185Z" fill="black"/>
</svg>
