<svg width="32" height="28" viewBox="0 0 32 28" fill="none" xmlns="http://www.w3.org/2000/svg">
<path d="M14 7.99951V5.99951H2C0.898 5.99951 0 6.89751 0 7.99951V11.9995H14.422C14.144 10.7775 14 9.46151 14 7.99951Z" fill="white"/>
<path d="M31.918 15.9995C30.554 18.1015 28.474 19.8895 25.494 21.6015C25.036 21.8635 24.52 21.9995 24 21.9995C23.48 21.9995 22.964 21.8635 22.512 21.6055C19.532 19.8895 17.452 18.0995 16.086 15.9995H0V25.9995C0 27.1035 0.898 27.9995 2 27.9995H30C31.104 27.9995 32 27.1035 32 25.9995V15.9995H31.918ZM9 21.9995H5C4.448 21.9995 4 21.5515 4 20.9995C4 20.4475 4.448 19.9995 5 19.9995H9C9.552 19.9995 10 20.4475 10 20.9995C10 21.5515 9.552 21.9995 9 21.9995Z" fill="white"/>
<path d="M31.394 3.08149L24.394 0.0814883C24.14 -0.0265117 23.858 -0.0265117 23.604 0.0814883L16.604 3.08149C16.238 3.23749 16 3.59949 16 3.99949V7.99949C16 13.5015 18.034 16.7175 23.502 19.8675C23.656 19.9555 23.828 19.9995 24 19.9995C24.172 19.9995 24.344 19.9555 24.498 19.8675C29.966 16.7255 32 13.5095 32 7.99949V3.99949C32 3.59949 31.762 3.23749 31.394 3.08149ZM27.782 7.62549L23.782 12.6255C23.59 12.8615 23.302 12.9995 23 12.9995C22.986 12.9995 22.97 12.9995 22.958 12.9995C22.64 12.9855 22.346 12.8215 22.168 12.5555L20.168 9.55549C19.862 9.09549 19.986 8.47549 20.446 8.16949C20.902 7.86549 21.524 7.98549 21.832 8.44749L23.074 10.3095L26.218 6.37749C26.564 5.94749 27.194 5.87949 27.624 6.22149C28.056 6.56349 28.124 7.19349 27.782 7.62549Z" fill="white"/>
</svg>
