<svg width="32" height="30" viewBox="0 0 32 30" fill="none" xmlns="http://www.w3.org/2000/svg">
<path d="M14.125 29.0625C15.6783 29.0625 16.9375 27.8033 16.9375 26.25C16.9375 24.6967 15.6783 23.4375 14.125 23.4375C12.5717 23.4375 11.3125 24.6967 11.3125 26.25C11.3125 27.8033 12.5717 29.0625 14.125 29.0625Z" fill="#150101"/>
<path d="M23.5625 29.0625C25.1158 29.0625 26.375 27.8033 26.375 26.25C26.375 24.6967 25.1158 23.4375 23.5625 23.4375C22.0092 23.4375 20.75 24.6967 20.75 26.25C20.75 27.8033 22.0092 29.0625 23.5625 29.0625Z" fill="#150101"/>
<path d="M0.937495 2.81255H4.84703L9.37313 18.657L9.01813 19.367C8.08339 21.2345 9.44032 23.4374 11.534 23.4374H27.3123C27.8305 23.4374 28.2498 23.0181 28.2498 22.4999C28.2498 21.9818 27.8305 21.5624 27.3123 21.5624H11.534C10.8378 21.5624 10.3828 20.8294 10.6954 20.2056L10.9545 19.6875H27.3123C27.7307 19.6875 28.0988 19.4101 28.2141 19.0072L31.9641 5.88228C32.0447 5.59941 31.9879 5.29541 31.8113 5.06016C31.6336 4.82579 31.3563 4.68754 31.0624 4.68754H7.33264L6.45559 1.61775C6.34021 1.21494 5.97222 0.9375 5.55378 0.9375H0.937495C0.41931 0.9375 0 1.35681 0 1.87499C0 2.39318 0.41931 2.81255 0.937495 2.81255Z" fill="#150101"/>
</svg>
