<svg width="33" height="33" viewBox="0 0 33 33" fill="none" xmlns="http://www.w3.org/2000/svg">
<path d="M30.271 13.2822C29.7878 12.9888 29.3536 12.615 28.9855 12.1756C29.0227 11.5639 29.1622 10.9638 29.3976 10.4024C29.8306 9.12639 30.3201 7.68103 29.5345 6.55738C28.7489 5.43373 27.2655 5.46947 25.9636 5.50056C25.3883 5.56238 24.8072 5.52139 24.2451 5.37933C23.9456 4.87036 23.7317 4.3116 23.6127 3.72727C23.2437 2.41401 22.8227 0.929795 21.5297 0.485307C20.2828 0.0656861 19.1282 0.988852 18.1075 1.80012C17.6671 2.22023 17.1568 2.5526 16.6018 2.78079C16.041 2.55446 15.525 2.22201 15.0797 1.80012C14.062 0.993515 12.9118 0.0610237 11.659 0.486861C10.369 0.925132 9.94796 2.41401 9.57599 3.72727C9.45716 4.30971 9.2454 4.86713 8.94959 5.37622C8.38645 5.5179 7.80455 5.55992 7.2281 5.50056C5.92174 5.46326 4.45022 5.42285 3.65717 6.55738C2.86413 7.69191 3.3596 9.12639 3.79406 10.4008C4.03278 10.9614 4.17434 11.5618 4.21216 12.1741C3.84477 12.614 3.41104 12.9883 2.92811 13.2822C1.83897 14.0593 0.602539 14.9436 0.602539 16.3796C0.602539 17.8157 1.83897 18.6969 2.92811 19.477C3.41093 19.7704 3.84465 20.1442 4.21216 20.5836C4.17831 21.1956 4.04079 21.7966 3.80596 22.3584C3.37447 23.6328 2.88645 25.0782 3.67056 26.2019C4.45468 27.3255 5.93364 27.2898 7.24149 27.2587C7.81726 27.1968 8.39891 27.2378 8.96149 27.3799C9.25964 27.8894 9.47295 28.448 9.59236 29.032C9.96135 30.3452 10.3824 31.8294 11.6754 32.2739C11.8827 32.3434 12.099 32.379 12.3167 32.3796C13.363 32.2228 14.3354 31.7258 15.0961 30.9591C15.5365 30.539 16.0468 30.2066 16.6018 29.9784C17.1626 30.2048 17.6786 30.5372 18.1239 30.9591C19.1431 31.7719 20.2977 32.6998 21.546 32.2724C22.836 31.8341 23.2571 30.3452 23.6291 29.0335C23.7483 28.45 23.9617 27.8919 24.26 27.383C24.8209 27.2404 25.401 27.1983 25.9755 27.2587C27.2819 27.2913 28.7534 27.3364 29.5464 26.2019C30.3395 25.0673 29.844 23.6328 29.4095 22.3569C29.1724 21.7968 29.031 21.1977 28.9914 20.5867C29.359 20.1464 29.7933 19.772 30.277 19.4786C31.3661 18.7015 32.6025 17.8157 32.6025 16.3796C32.6025 14.9436 31.3616 14.0608 30.271 13.2822Z" fill="white"/>
<path d="M15.1137 20.6536C14.9671 20.6539 14.8219 20.6238 14.6866 20.5651C14.5512 20.5064 14.4284 20.4203 14.3251 20.3117L11.3493 17.2034C11.1522 16.9824 11.0449 16.6902 11.05 16.3882C11.0551 16.0862 11.1722 15.7981 11.3767 15.5845C11.5811 15.371 11.8569 15.2487 12.146 15.2433C12.4351 15.238 12.7149 15.3501 12.9265 15.556L15.2178 17.9494L20.3957 13.893C20.6324 13.7076 20.93 13.6279 21.223 13.6716C21.516 13.7154 21.7804 13.8789 21.9579 14.1262C22.1355 14.3735 22.2118 14.6843 22.1699 14.9904C22.1281 15.2964 21.9715 15.5725 21.7348 15.758L15.7832 20.4205C15.59 20.5717 15.3551 20.6535 15.1137 20.6536Z" fill="#120101"/>
</svg>
